<svg width="500" height="205" viewBox="0 0 500 205" fill="none" xmlns="http://www.w3.org/2000/svg">
<path fill-rule="evenodd" clip-rule="evenodd" d="M385.323 2.0498H497.078V150.675H385.323V2.0498ZM421.925 32.0823C420.49 36.6948 418.029 44.6898 416.594 49.7123C415.056 54.7348 413.108 61.7048 412.288 65.0873C411.468 68.4698 410.237 72.5698 409.417 74.3123C408.699 76.0548 407.264 80.8723 406.341 85.0748C405.419 89.2773 404.188 93.1723 403.778 93.7873C403.266 94.4023 402.24 98.0923 401.42 101.987C400.6 105.882 399.267 110.802 398.344 112.75C397.524 114.697 396.499 118.182 396.089 120.437C395.678 122.692 395.166 125.152 394.961 125.87C394.653 126.792 397.421 126.997 407.059 126.895L419.567 126.587C421.003 121.052 422.131 117.362 422.951 114.8C423.873 112.237 425.309 107.83 426.334 105.062L428.077 99.9373H451.351C457.81 119.002 459.963 125.152 460.373 125.87C460.988 126.69 464.679 127.1 472.984 127.1C482.827 127.1 484.775 126.792 484.775 125.562C484.775 124.742 483.647 120.642 482.314 116.542C480.879 112.545 479.033 105.882 478.008 101.987C477.085 98.0923 475.957 94.4023 475.547 93.7873C475.137 93.1723 474.317 90.4048 473.599 87.6373C472.984 84.7673 471.241 78.6173 469.806 73.7998C468.37 68.9823 465.807 60.4748 464.167 54.8373C462.526 49.1998 460.271 41.8198 459.143 38.4373C458.118 35.0548 456.682 30.3398 456.17 27.8798L455.042 23.5748H424.489L421.925 32.0823Z" fill="#F66E03"/>
<path fill-rule="evenodd" clip-rule="evenodd" d="M118.753 2.0498H206.926V150.675H118.753V2.0498ZM131.979 37.9248C135.875 45.5098 141.719 56.7848 145 63.0373L150.946 74.3123L151.561 127.1H171.042L171.554 74.3123C176.168 65.5998 178.218 61.7048 179.039 59.9623C179.961 58.2198 183.755 51.1473 187.651 44.0748C191.547 37.0023 194.623 30.8523 194.623 30.2373C194.52 29.6223 195.238 28.4948 196.161 27.6748C197.083 26.8548 197.801 25.5223 197.699 24.8048C197.699 23.8823 194.725 23.5748 186.113 23.5748H174.63C165.505 42.6398 162.429 48.1748 161.814 48.1748C161.199 48.1748 158.123 42.6398 154.945 35.8748L148.998 23.5748C130.338 23.5748 124.904 23.6773 124.904 23.7798C124.904 23.9848 128.083 30.3398 131.979 37.9248Z" fill="#EDD809"/>
<path fill-rule="evenodd" clip-rule="evenodd" d="M212.052 2.0498H298.175V150.675H212.052V2.0498ZM219.229 33.8248C219.229 43.7673 219.332 44.0748 221.587 44.2798C222.818 44.3823 227.739 44.4848 232.558 44.6898C237.376 44.7923 241.888 44.9973 242.605 44.9973C243.528 45.0998 243.836 54.0173 243.836 86.0998V127.1H264.341C264.341 55.2473 264.649 45.9198 265.674 45.4073C266.289 44.9973 271.108 44.7923 276.132 44.9973C281.156 45.2023 286.384 44.9973 287.717 44.6898C289.87 44.0748 289.973 43.5623 289.973 35.3623C289.973 30.5448 289.768 25.9323 289.46 25.1123C289.05 23.7798 284.129 23.5748 254.088 23.5748H219.229V33.8248Z" fill="#18E112"/>
<path fill-rule="evenodd" clip-rule="evenodd" d="M1.87158 2.0498H113.626V150.675L2.38422 150.162L1.87158 2.0498ZM12.1243 127.1H34.6803C34.6803 97.3748 35.0904 89.9948 35.7056 89.6873C36.3207 89.3798 37.1409 89.7898 37.551 90.5073C38.0637 91.1223 39.1915 94.0948 40.1142 96.8623C41.037 99.7323 43.4976 106.6 45.5482 112.237C47.5987 117.875 49.5467 123.512 49.9568 124.845C50.572 127.1 50.9821 127.202 57.7489 126.895L64.8233 126.587C74.6659 97.7848 77.7417 90.1998 78.5619 90.1998C79.4847 90.1998 79.7922 94.6073 79.7922 108.65V127.1H102.348V23.5748H80.3049C79.0746 28.6998 77.5366 32.6973 76.2038 35.5673C74.7684 38.5398 73.6406 41.8198 73.6406 42.7423C73.6406 43.7673 72.6153 46.6373 71.4875 49.1998C70.3597 51.7623 68.4117 56.7848 67.2839 60.4748C66.1561 64.1648 64.8233 67.5473 64.4132 68.1623C63.9005 68.7773 62.6702 72.3648 61.6449 76.2598C60.6197 80.1548 59.2868 83.6398 58.5691 84.1523C57.6464 84.7673 56.8262 84.1523 55.8009 82.2048C55.0832 80.6673 52.9301 75.0298 51.1872 69.6998C49.3417 64.3698 47.4962 59.0398 46.9835 57.9123C46.4709 56.7848 45.0355 52.8898 43.8052 49.1998C42.4724 45.5098 40.1142 38.3348 38.3713 33.3123L35.1929 24.0873L12.2268 23.4723L12.1243 127.1Z" fill="#DD0A1B"/>
<path fill-rule="evenodd" clip-rule="evenodd" d="M299.2 2.0498H381.222V150.675H299.2V2.0498ZM308.428 127.1H371.995V105.575H330.984V86.0998H360.717V64.5748H330.984L331.497 44.8948L371.995 45.0998V23.5748H308.428V127.1Z" fill="#0540A7"/>
<path fill-rule="evenodd" clip-rule="evenodd" d="M232.763 168.305C237.684 168.51 240.35 169.227 242.503 170.765C244.041 171.892 246.399 174.455 247.732 176.402C248.962 178.35 250.295 181.527 250.603 183.475C251.013 185.422 251.013 188.497 250.603 190.137C250.295 191.777 248.962 194.852 247.629 196.8C246.399 198.747 243.426 201.412 241.273 202.745C237.992 204.59 235.941 205 230.917 204.795C226.304 204.59 223.74 203.77 220.972 201.925C218.819 200.49 216.256 197.517 215.128 195.262C213.898 192.802 213.078 189.112 213.078 186.037C213.078 182.655 213.898 179.58 215.436 176.812C216.666 174.66 219.537 171.687 221.792 170.355C225.176 168.407 227.124 168.1 232.763 168.305ZM221.792 180.4C220.972 182.04 220.255 184.91 220.255 186.55C220.255 188.19 220.87 190.855 221.69 192.495C222.408 194.032 224.356 195.98 225.894 196.8C227.534 197.62 230.2 198.337 231.943 198.337C233.788 198.337 236.454 197.517 237.992 196.595C239.53 195.57 241.478 193.11 242.298 191.162C243.118 189.112 243.631 186.14 243.323 184.295C243.016 182.45 241.888 179.887 240.76 178.657C239.632 177.325 237.582 175.89 236.146 175.275C234.711 174.66 232.558 174.25 231.327 174.25C229.995 174.352 227.739 174.967 226.201 175.787C224.561 176.607 222.613 178.76 221.792 180.4Z" fill="black"/>
<path d="M114.344 113.263C114.241 134.173 114.139 117.465 114.139 76.3627C114.139 35.1577 114.241 18.1427 114.344 38.4377C114.549 58.7327 114.549 92.4552 114.344 113.263Z" fill="#DE1626" fill-opacity="0.9"/>
<path d="M87.4818 0.7175C72.3078 0.9225 46.881 0.9225 31.0918 0.7175C15.3027 0.615 27.7084 0.5125 58.7742 0.5125C89.8399 0.5125 102.656 0.615 87.4818 0.7175Z" fill="#F6E5CD" fill-opacity="0.1"/>
<path d="M185.395 0.7175C172.682 0.9225 152.176 0.9225 139.771 0.7175C127.365 0.615 137.72 0.5125 162.839 0.5125C187.958 0.5125 198.109 0.615 185.395 0.7175Z" fill="#F6E5CD" fill-opacity="0.1"/>
<path d="M440.483 1.025C408.699 1.025 382.555 0.82 382.247 0.5125C381.94 0.205 408.187 0 440.38 0C491.644 0 499.231 0.205 499.641 1.5375C499.949 2.3575 499.744 3.075 499.128 3.075C498.513 3.075 498.103 2.665 498.103 2.05C498.103 1.3325 478.213 1.025 440.483 1.025Z" fill="#F6E5CD" fill-opacity="0.1"/>
<path d="M499.846 23.0625C499.641 25.3175 499.539 23.0625 499.539 17.9375C499.539 12.915 499.641 11.07 499.846 13.8375C500.051 16.7075 500.051 20.8075 499.846 23.0625Z" fill="#F6E5CD" fill-opacity="0.1"/>
<path d="M499.846 97.375C499.744 105.575 499.539 98.4 499.539 81.4875C499.539 64.575 499.744 57.9125 499.846 66.625C500.051 75.3375 500.051 89.175 499.846 97.375Z" fill="#F6E5CD" fill-opacity="0.1"/>
<path d="M117.215 152.213V76.3627V0.512695L118.24 151.188H207.439V76.0552C207.439 34.8502 207.746 1.0252 208.259 1.0252C208.669 1.0252 208.976 34.5427 208.976 75.5427C209.079 135.3 208.771 150.368 207.746 151.393C206.721 152.418 195.853 152.623 117.215 152.213Z" fill="#F5DC92" fill-opacity="0.3"/>
<path d="M383.99 113.263C383.888 134.173 383.785 117.465 383.785 76.3627C383.785 35.1577 383.888 18.1427 383.99 38.4377C384.195 58.7327 384.195 92.4552 383.99 113.263Z" fill="#F5DC92" fill-opacity="0.3"/>
<path d="M498.821 113.775C498.718 134.378 498.616 117.773 498.616 76.8752C498.616 35.9777 498.718 19.1677 498.821 39.4627C499.026 59.7577 499.026 93.1727 498.821 113.775Z" fill="#F5DC92" fill-opacity="0.3"/>
<path d="M209.182 76.875C209.182 37.105 209.694 3.5875 210.104 2.3575L211.027 0L382.76 0.5125L211.027 1.025L211.335 76.875C211.54 137.965 211.335 152.418 210.207 150.983C209.284 149.548 208.977 133.353 209.182 76.875Z" fill="#C4EFCB" fill-opacity="0.1"/>
<path d="M0.538763 124.538C0.436236 139.195 0.231182 117.363 0.0261274 76.1579V76.0554C-0.0763998 34.8504 0.128655 1.02539 0.538763 1.02539C1.0514 1.02539 1.25645 22.8579 1.0514 49.4054C0.948872 76.0554 0.743818 109.88 0.538763 124.538Z" fill="#EF8485" fill-opacity="0.2"/>
<path d="M115.369 115.415C115.267 135.095 115.164 119.413 115.164 80.5654C115.164 41.6154 115.267 25.5229 115.369 44.6904C115.574 63.8579 115.574 95.6329 115.369 115.415Z" fill="#EF8485" fill-opacity="0.2"/>
<path d="M86.4566 152.52C70.6674 152.725 45.0356 152.725 29.554 152.52C14.0724 152.418 26.9908 152.315 58.2616 152.315C89.5324 152.315 102.246 152.418 86.4566 152.52Z" fill="#EF8485" fill-opacity="0.2"/>
<path d="M469.908 152.52C454.119 152.725 428.487 152.725 413.006 152.52C397.524 152.418 410.442 152.315 441.713 152.315C472.984 152.315 485.697 152.418 469.908 152.52Z" fill="#EF8485" fill-opacity="0.2"/>
<path d="M499.846 45.1002C499.641 48.7902 499.539 46.0227 499.539 38.9502C499.539 31.8777 499.641 28.9052 499.846 32.2877C500.051 35.6702 500.051 41.4102 499.846 45.1002Z" fill="#F7B3A8" fill-opacity="0.1"/>
<path d="M499.846 141.45C499.744 146.78 499.539 142.168 499.539 131.2C499.539 120.233 499.744 115.825 499.846 121.463C500.051 127.1 500.051 136.12 499.846 141.45Z" fill="#F7B3A8" fill-opacity="0.1"/>
<path d="M1.05139 77.3873C0.94886 36.7973 1.05139 2.97229 1.35897 2.35729V2.25479C1.66655 1.33229 13.9698 1.12729 115.164 1.53729L1.8716 2.04979V150.675L114.652 151.187H1.35897L1.05139 77.3873Z" fill="#EA5C55" fill-opacity="0.6"/>
<path d="M381.94 113.263C381.837 134.173 381.735 117.465 381.735 76.3627C381.735 35.1577 381.837 18.1427 381.94 38.4377C382.145 58.7327 382.145 92.4552 381.94 113.263Z" fill="#2C5AB1" fill-opacity="0.8"/>
<path d="M211.745 113.263C211.642 134.173 211.54 117.465 211.54 76.3627C211.54 35.1577 211.642 18.1427 211.745 38.4377C211.95 58.7327 211.95 92.4552 211.745 113.263Z" fill="#33E32D" fill-opacity="0.9"/>
<path d="M384.503 77.3873C384.401 36.7973 384.503 2.97229 384.811 2.35729V2.25479C385.118 1.33229 397.421 1.12729 498.616 1.53729L385.323 2.04979V150.675L498.103 151.187H384.811L384.503 77.3873Z" fill="#F79E59" fill-opacity="0.6"/>
<path d="M118.445 113.263C118.343 134.173 118.24 117.465 118.24 76.3627C118.24 35.1577 118.343 18.1427 118.445 38.4377C118.65 58.7327 118.65 92.4552 118.445 113.263Z" fill="#EEDF3B" fill-opacity="0.7"/>
<path d="M207.644 113.263C207.541 134.173 207.439 117.465 207.439 76.3627C207.439 35.1577 207.541 18.1427 207.644 38.4377C207.849 58.7327 207.849 92.4552 207.644 113.263Z" fill="#EEDF3B" fill-opacity="0.7"/>
<path d="M382.452 150.88C382.042 151.29 381.94 117.875 382.247 76.5671L382.76 1.53711L382.965 75.8496C383.17 116.747 382.863 150.47 382.452 150.88Z" fill="#6383C3" fill-opacity="0.4"/>
<path d="M255.627 152.418C231.943 152.623 212.258 152.316 211.847 151.906C211.437 151.495 230.815 151.393 298.688 152.213L255.627 152.418Z" fill="#7EEC7A" fill-opacity="0.3"/>
<path d="M277.157 1.74211C265.264 1.94711 245.476 1.94711 233.07 1.74211C220.665 1.63961 230.302 1.53711 254.601 1.53711C278.798 1.53711 289.05 1.63961 277.157 1.74211Z" fill="#5DE957" fill-opacity="0.6"/>
<path d="M276.645 151.392C264.546 151.597 244.964 151.597 233.07 151.392C221.177 151.29 231.122 151.187 255.114 151.187C279.105 151.187 288.743 151.29 276.645 151.392Z" fill="#5DE957" fill-opacity="0.6"/>
<path d="M361.742 1.74211C350.157 1.94711 331.086 1.94711 319.193 1.74211C307.3 1.63961 316.835 1.53711 340.211 1.53711C363.588 1.53711 373.328 1.63961 361.742 1.74211Z" fill="#4672BE" fill-opacity="0.6"/>
<path d="M360.717 151.392C349.131 151.597 330.471 151.597 319.193 151.392C307.915 151.29 317.348 151.187 340.211 151.187C363.075 151.187 372.302 151.29 360.717 151.392Z" fill="#4672BE" fill-opacity="0.6"/>
<path d="M185.395 1.74211C173.297 1.94711 152.997 1.94711 140.283 1.74211C127.57 1.63961 137.515 1.53711 162.327 1.53711C187.138 1.53711 197.494 1.63961 185.395 1.74211Z" fill="#F0E24B" fill-opacity="0.6"/>
<path d="M184.883 151.392C172.477 151.597 152.382 151.597 140.283 151.392C128.185 151.29 138.335 151.187 162.839 151.187C187.343 151.187 197.289 151.29 184.883 151.392Z" fill="#F0E24B" fill-opacity="0.6"/>
<path d="M298.893 113.263C298.79 134.173 298.688 117.465 298.688 76.3627C298.688 35.1577 298.79 18.1427 298.893 38.4377C299.098 58.7327 299.098 92.4552 298.893 113.263Z" fill="#0A8564"/>
<path d="M497.796 113.263C497.693 134.173 497.591 117.465 497.591 76.3627C497.591 35.1577 497.693 18.1427 497.796 38.4377C498.001 58.7327 498.001 92.4552 497.796 113.263Z" fill="#F6832C" fill-opacity="0.8"/>
<path d="M360.717 152.418C349.131 152.623 330.471 152.623 319.193 152.418C307.915 152.315 317.348 152.213 340.211 152.213C363.075 152.213 372.302 152.315 360.717 152.418Z" fill="#5A7FC3" fill-opacity="0.2"/>
<path fill-rule="evenodd" clip-rule="evenodd" d="M181.499 167.895L192.47 168.305C199.647 168.51 204.055 169.227 205.593 170.15C206.823 170.97 208.361 172.712 208.977 173.942C209.489 175.275 210.002 178.145 210.002 180.4C210.002 183.167 209.284 185.32 207.746 187.165C206.413 188.6 203.543 190.137 201.287 190.65C199.031 191.162 195.033 191.675 187.446 191.675V205H181.294L181.499 167.895ZM188.471 184.5C197.801 184.5 200.877 183.987 201.595 183.27C202.312 182.552 202.825 181.015 202.825 179.887C202.825 178.76 202.21 177.325 201.492 176.607C200.774 175.787 197.699 175.275 194.315 175.275H188.471V184.5ZM254.191 167.997L263.726 168.612L269.878 182.142C273.261 189.522 276.439 195.98 276.85 196.492C277.362 196.902 277.67 190.752 277.67 168.1H283.821V205H274.594L261.778 176.197L261.265 205H254.089L254.191 167.997ZM290.486 168.1C293.869 168.1 294.177 168.51 298.175 175.787C300.431 180.092 302.584 183.475 302.994 183.475C303.404 183.577 305.762 180.092 308.12 175.787C312.221 168.51 312.632 168.1 316.117 168.1C319.193 168.1 319.501 168.407 318.681 169.945C318.168 170.867 315.195 176.095 312.016 181.425C306.582 190.752 306.275 191.572 306.377 205H300.226V198.337C300.226 191.982 299.918 191.162 293.561 180.4C289.87 174.25 286.897 168.92 286.897 168.612C286.897 168.407 288.435 168.1 290.486 168.1Z" fill="black"/>
<path d="M22.9921 21.7298C16.0203 21.9348 10.4838 21.7298 10.6889 21.3198V21.2173C10.9964 20.8072 16.6354 20.4998 23.1972 20.4998C31.8095 20.3972 35.5004 20.8073 36.3207 21.7298C36.9358 22.4473 37.756 24.1898 38.1662 25.6248C38.5763 27.4698 38.2687 27.2648 35.7055 21.5248L22.9921 21.7298Z" fill="#DE1626" fill-opacity="0.9"/>
<path d="M77.5366 24.0873C77.4341 23.5748 77.9467 22.5498 78.7669 21.8323C79.6897 21.0123 83.9958 20.7047 103.886 21.0123L92.0955 21.3198C82.3554 21.6273 80.0998 21.9348 78.972 23.4723C78.2543 24.3948 77.6391 24.7023 77.5366 24.0873Z" fill="#DE1626" fill-opacity="0.9"/>
<path d="M104.399 129.252L104.604 75.1323L104.911 21.1148L105.219 74.4148C105.321 103.73 105.219 128.33 104.911 128.945C104.501 129.97 100.913 130.175 77.229 129.867L104.399 129.252Z" fill="#DE1626" fill-opacity="0.9"/>
<path d="M36.6282 129.15V112.237C36.6282 103.012 36.9358 95.3248 37.3459 95.3248C37.6535 95.3248 38.7813 97.9898 39.9091 101.27C40.9344 104.55 41.6521 107.42 41.3445 107.625C41.0369 107.932 40.2167 106.087 39.499 103.525C38.2687 99.2198 38.1662 99.6298 37.1409 129.662L24.325 129.97C17.3531 130.072 11.2015 129.867 10.7914 129.457C10.4838 129.047 16.1228 128.842 36.6282 129.15Z" fill="#DE1626" fill-opacity="0.9"/>
<path d="M76.7164 114.287C76.4088 106.497 76.3063 99.4248 76.5113 98.7073C76.7164 97.9898 77.024 97.3748 77.229 97.3748C77.5366 97.3748 77.5366 104.447 77.229 128.637L76.7164 114.287Z" fill="#DE1626" fill-opacity="0.9"/>
<path d="M57.1337 129.15C63.5929 129.15 65.5409 128.842 66.1561 127.612C66.4637 126.792 67.0788 126.28 67.3864 126.587C67.694 126.895 67.2839 127.817 66.3611 128.74C65.2333 130.072 63.1828 130.277 56.7236 130.072C50.5719 129.765 48.5214 129.355 48.3163 128.125C48.1113 127.305 48.2138 127.202 48.4189 127.92C48.829 128.842 51.5972 129.15 57.1337 129.15Z" fill="#DE1626" fill-opacity="0.9"/>
<path d="M143.872 23.2673C140.488 23.4723 134.439 23.4723 130.543 23.2673C126.647 23.0623 129.313 22.9598 136.695 22.9598C144.077 22.9598 147.255 23.0623 143.872 23.2673Z" fill="#F6E5CD" fill-opacity="0.1"/>
<path d="M186.523 23.6773C179.961 23.5748 174.425 23.2673 174.117 22.9598C173.81 22.7548 179.551 22.5498 186.831 22.5498C194.11 22.5498 199.749 22.8573 199.237 23.1648C198.826 23.5748 193.085 23.7798 186.523 23.6773Z" fill="#F6E5CD" fill-opacity="0.1"/>
<path d="M423.771 25.4198C423.464 24.9073 423.566 24.0873 423.874 23.5748C424.181 22.8573 430.128 22.5498 439.868 22.7548C449.198 22.9598 455.452 23.4723 455.555 24.0873C455.657 24.7023 455.555 24.8048 455.349 24.3948C455.144 23.8823 448.173 23.5748 439.663 23.5748C428.077 23.5748 424.284 23.8823 424.284 24.9073C424.284 25.5223 424.079 25.8298 423.771 25.4198Z" fill="#F6E5CD" fill-opacity="0.1"/>
<path d="M243.528 75.3373C243.323 78.7198 243.221 76.4648 243.221 70.2123C243.221 63.9598 243.323 61.2948 243.528 64.0623C243.733 66.9323 243.733 71.9548 243.528 75.3373Z" fill="#F6E5CD" fill-opacity="0.1"/>
<path d="M171.042 127.1V101.475C171.042 87.4323 171.247 75.8498 171.554 75.8498C171.862 75.8498 172.067 87.6373 172.067 128.125H150.536L151.049 76.3623L151.561 127.1H171.042Z" fill="#F6E5CD" fill-opacity="0.1"/>
<path d="M77.7418 92.2498C77.2292 92.2498 76.7166 91.8398 76.7166 91.2248C76.7166 90.6098 77.4342 90.1998 78.2545 90.1998C79.5873 90.1998 79.7924 92.8648 79.3823 127.612L79.0747 109.982C78.8696 99.0148 78.357 92.2498 77.7418 92.2498Z" fill="#F6E5CD" fill-opacity="0.1"/>
<path d="M243.528 117.362C243.426 121.872 243.221 118.695 243.221 110.187C243.221 101.782 243.426 98.0923 243.528 101.987C243.733 105.985 243.733 112.852 243.528 117.362Z" fill="#F6E5CD" fill-opacity="0.1"/>
<path d="M439.663 100.962C432.999 100.962 427.77 100.655 427.975 100.245C428.282 99.7323 433.511 99.4248 439.663 99.4248C445.917 99.4248 451.146 99.7323 451.351 100.245C451.556 100.655 446.327 100.962 439.663 100.962Z" fill="#F6E5CD" fill-opacity="0.1"/>
<path d="M142.334 22.2421C138.643 22.4471 132.901 22.4471 129.518 22.2421C126.135 22.0371 129.108 21.9346 136.182 21.9346C143.257 21.9346 146.025 22.0371 142.334 22.2421Z" fill="#F5DC92" fill-opacity="0.3"/>
<path d="M193.598 22.2421C189.907 22.4471 184.165 22.4471 180.782 22.2421C177.398 22.0371 180.372 21.9346 187.446 21.9346C194.52 21.9346 197.289 22.0371 193.598 22.2421Z" fill="#F5DC92" fill-opacity="0.3"/>
<path d="M150.023 128.637L149.511 100.757C149.203 85.4846 149.408 73.1846 149.921 73.4921C150.331 73.6971 150.741 86.0996 150.536 128.125L172.579 128.74L150.023 128.637Z" fill="#F5DC92" fill-opacity="0.3"/>
<path d="M218.614 41.5123L218.409 32.0823L218.204 22.5498L290.486 23.0623L219.229 23.5748L218.614 41.5123Z" fill="#C4EFCB" fill-opacity="0.1"/>
<path d="M356.616 23.3698C347.901 23.5748 333.342 23.5748 324.32 23.3698C315.297 23.1648 322.474 23.0623 340.211 23.0623C357.949 23.0623 365.331 23.1648 356.616 23.3698Z" fill="#C4EFCB" fill-opacity="0.1"/>
<path d="M265.059 108.65C264.957 119.72 264.751 110.905 264.751 89.1748C264.751 67.5473 264.957 58.5273 265.059 69.1873C265.264 79.9498 265.264 97.6823 265.059 108.65Z" fill="#C4EFCB" fill-opacity="0.1"/>
<path d="M361.435 80.4623C361.23 83.8448 361.127 81.5898 361.127 75.3373C361.127 69.1873 361.23 66.4198 361.435 69.1873C361.64 72.0573 361.64 77.0798 361.435 80.4623Z" fill="#C4EFCB" fill-opacity="0.1"/>
<path d="M243.528 92.2498C243.323 94.2998 243.118 92.4548 243.118 88.1498C243.118 83.9473 243.323 82.3073 243.528 84.5623C243.733 86.8173 243.733 90.3023 243.528 92.2498Z" fill="#C4EFCB" fill-opacity="0.1"/>
<path d="M253.268 127.92C243.938 128.125 242.811 128.022 242.811 126.382C242.811 125.152 243.084 124.947 243.631 125.767C244.041 126.587 247.937 127.202 263.829 127.715L253.268 127.92Z" fill="#C4EFCB" fill-opacity="0.1"/>
<path d="M29.0414 22.2422C26.2731 22.4472 21.1468 22.4472 17.7634 22.2422C14.38 22.0371 16.6356 21.9346 22.8897 21.9346C29.0414 21.9346 31.9121 22.0371 29.0414 22.2422Z" fill="#EF8485" fill-opacity="0.2"/>
<path d="M11.3041 76.3624C11.2015 48.1748 11.3041 24.4973 11.6117 23.8823V23.7798C11.8167 23.1648 12.842 22.6523 13.8673 22.6523C15.6102 22.7548 15.6102 22.8573 13.9698 23.1648C12.2268 23.5748 12.1243 26.8548 12.1243 127.1H34.6803L35.2954 92.7624L35.7055 128.125L11.6117 127.612L11.3041 76.3624Z" fill="#F7B3A8" fill-opacity="0.1"/>
<path d="M102.348 127.202L102.143 74.9273H102.041C101.938 46.1248 102.143 22.6523 102.553 22.6523C103.066 22.6523 103.373 46.4323 103.373 128.227L78.2543 127.817L102.348 127.202Z" fill="#F7B3A8" fill-opacity="0.1"/>
<path d="M62.4651 127.92C60.5171 128.125 56.8261 128.125 54.263 127.92C51.6998 127.715 53.3402 127.51 57.8514 127.51C62.3626 127.51 64.4132 127.715 62.4651 127.92Z" fill="#F7B3A8" fill-opacity="0.1"/>
<path d="M414.133 127.92C411.058 128.125 405.521 128.125 401.83 127.92C398.139 127.715 400.702 127.612 407.469 127.612C414.236 127.612 417.209 127.715 414.133 127.92Z" fill="#F7B3A8" fill-opacity="0.1"/>
<path d="M478.726 127.92C475.035 128.125 469.293 128.125 465.91 127.92C462.526 127.715 465.5 127.612 472.574 127.612C479.648 127.612 482.417 127.715 478.726 127.92Z" fill="#F7B3A8" fill-opacity="0.1"/>
<path d="M9.86877 75.5429C9.76624 46.5354 10.0738 22.5504 10.5865 22.2429C11.0991 21.8329 11.5092 21.5254 11.5092 21.5254C11.6117 21.5254 11.6117 45.7154 11.6117 75.2354C11.6117 104.755 11.3041 128.74 10.7915 128.535C10.3814 128.33 9.97129 104.448 9.86877 75.5429Z" fill="#EA5C55" fill-opacity="0.6"/>
<path d="M76.3064 99.4254C75.9988 99.1179 76.1013 97.8879 76.4089 96.6579C76.7165 95.3254 77.4342 94.6079 77.9468 94.9154C78.562 95.2229 78.8696 102.295 78.3569 129.663L77.7418 113.263C77.4342 104.243 77.0241 97.5804 76.9215 98.4004C76.819 99.2204 76.5114 99.7329 76.3064 99.4254Z" fill="#EA5C55" fill-opacity="0.6"/>
<path d="M65.6436 128.535C65.2334 128.74 65.8486 126.383 66.9764 123.308C68.1042 120.335 69.027 117.978 69.027 118.183C69.1295 118.388 68.5143 120.745 67.7966 123.308C67.0789 125.973 66.1562 128.33 65.6436 128.535Z" fill="#EA5C55" fill-opacity="0.6"/>
<path d="M444.994 22.7547C438.945 22.6522 431.768 22.3447 428.897 22.2422C426.129 22.0372 430.845 21.8322 439.458 21.7297C447.967 21.6272 455.247 21.8322 455.452 22.3447C455.657 22.7547 450.941 22.9597 444.994 22.7547Z" fill="#F4C180" fill-opacity="0.4"/>
<path d="M103.373 128.125L103.579 75.1322L103.886 22.0372L104.194 74.3122C104.296 103.115 104.194 127.202 103.886 127.92C103.476 128.842 100.093 129.047 78.2543 128.74L103.373 128.125Z" fill="#F4C180" fill-opacity="0.4"/>
<path d="M35.603 128.227L35.7055 109.675C35.808 99.5272 36.1156 91.3272 36.5257 91.6347C36.8333 91.8397 36.9358 100.347 36.1156 128.74L24.325 128.945C17.8658 129.047 12.2268 128.842 11.8167 128.432C11.4066 128.022 16.6355 127.817 35.603 128.227Z" fill="#F4C180" fill-opacity="0.4"/>
<path d="M406.854 128.74C395.576 128.74 393.013 128.432 392.705 127.202C392.432 126.109 392.568 126.006 393.115 126.895C393.73 127.715 398.447 128.227 420.593 128.74H406.854Z" fill="#F4C180" fill-opacity="0.4"/>
<path d="M472.471 127.92C480.776 128.125 485.697 127.817 485.697 127.202C485.697 126.587 486.005 126.177 486.21 126.177C486.518 126.177 486.723 126.792 486.723 127.715C486.723 128.945 484.57 129.252 473.394 129.252C466.115 129.252 459.963 128.842 459.655 128.432C459.45 128.022 465.192 127.817 472.471 127.92Z" fill="#F4C180" fill-opacity="0.4"/>
<path d="M60.7221 128.945C58.4665 129.15 55.0831 129.15 53.0326 128.945C51.0846 128.74 52.9301 128.535 57.1337 128.535C61.4398 128.535 62.9777 128.74 60.7221 128.945Z" fill="#F4C180" fill-opacity="0.4"/>
<path d="M373.02 21.5252L340.519 21.2177L307.915 21.0127H373.533V46.6377L333.035 47.1502L332.419 62.0127L332.522 46.6377L373.02 46.1252V21.5252Z" fill="#2C5AB1" fill-opacity="0.8"/>
<path d="M307.198 101.885C307.095 117.158 306.89 105.165 306.89 75.2352C306.89 45.4077 307.095 32.9027 307.198 47.5602C307.403 62.2177 307.403 86.7152 307.198 101.885Z" fill="#2C5AB1" fill-opacity="0.8"/>
<path d="M332.624 103.935L332.522 96.0427L332.419 88.0477L333.137 103.423L373.635 103.935V129.56L309.043 129.663L373.123 129.048V104.448L332.624 103.935Z" fill="#2C5AB1" fill-opacity="0.8"/>
<path d="M272.031 21.2177C261.881 21.4227 245.476 21.4227 235.634 21.2177C225.791 21.1152 234.096 21.0127 254.089 21.0127C274.081 21.0127 282.181 21.1152 272.031 21.2177Z" fill="#33E32D" fill-opacity="0.9"/>
<path d="M291.716 38.9502C291.511 42.6402 291.408 40.0777 291.408 33.3127C291.408 26.5477 291.511 23.5752 291.716 26.6502C291.921 29.7252 291.921 35.2602 291.716 38.9502Z" fill="#33E32D" fill-opacity="0.9"/>
<path d="M228.969 47.1502C222.51 47.1502 217.179 46.8427 217.179 46.4327C217.179 45.9202 222.613 45.8177 241.273 46.6377L241.785 129.15H266.392L266.904 46.6377H290.998L267.417 47.1502L266.904 129.663H241.273L240.76 47.1502H228.969Z" fill="#33E32D" fill-opacity="0.9"/>
<path d="M142.847 21.2177C139.463 21.4227 133.414 21.4227 129.518 21.2177C125.622 21.0127 128.288 20.9102 135.67 20.9102C143.052 20.9102 146.23 21.0127 142.847 21.2177Z" fill="#EDDA17" fill-opacity="0.9"/>
<path d="M200.262 23.5752C200.774 21.6277 200.159 21.5252 187.241 21.2177L173.605 20.9102L187.753 20.7052C201.184 20.5002 201.8 20.6027 201.8 22.5502C201.8 23.6777 201.39 24.8052 200.774 25.1127C200.159 25.4202 199.954 24.7027 200.262 23.5752Z" fill="#EDDA17" fill-opacity="0.9"/>
<path d="M173.912 114.8C173.707 122.385 173.605 116.44 173.605 101.475C173.605 86.5102 173.707 80.3602 173.912 87.6377C174.117 95.0177 174.117 107.215 173.912 114.8Z" fill="#EDDA17" fill-opacity="0.9"/>
<path d="M149.306 112.238C149.101 119.003 148.998 113.98 148.998 100.963C148.998 88.0477 149.101 82.5127 149.306 88.6627C149.511 94.9152 149.511 105.473 149.306 112.238Z" fill="#EDDA17" fill-opacity="0.9"/>
<path d="M160.891 129.765C149.818 129.663 149.101 129.56 148.896 127.613C148.691 126.178 148.759 126.109 149.101 127.408C149.511 128.945 151.151 129.253 172.682 129.765H160.891Z" fill="#EDDA17" fill-opacity="0.9"/>
<path d="M172.784 115.825C172.682 123.41 172.477 117.465 172.477 102.5C172.477 87.5349 172.682 81.2824 172.784 88.6624C172.989 96.0424 172.989 108.24 172.784 115.825Z" fill="#EEDF3B" fill-opacity="0.7"/>
<path fill-rule="evenodd" clip-rule="evenodd" d="M340.006 21.7297C357.539 21.6272 372.2 21.8322 372.405 22.3447C372.61 22.7547 363.28 22.9597 351.694 22.7547C340.006 22.6522 325.345 22.4472 319.193 22.2422C312.939 22.1397 322.372 21.8322 339.904 21.7297H340.006ZM372.61 45.6122L332.112 46.1247L331.702 60.9872L331.292 54.4272C331.086 50.8397 331.189 47.2522 331.497 46.5347C331.907 45.4072 336.11 45.0997 372.61 45.6122ZM362.562 68.6747C362.767 71.7497 362.767 77.2847 362.562 80.9747C362.357 84.6647 362.255 82.1022 362.255 75.3372C362.255 68.5722 362.357 65.5997 362.562 68.6747ZM332.317 87.1247C332.522 87.1247 332.419 91.1222 331.599 105.062L331.292 97.4772C331.086 93.2747 331.189 89.2772 331.497 88.4572C331.804 87.7397 332.214 87.1247 332.317 87.1247Z" fill="#6383C3" fill-opacity="0.4"/>
<path d="M347.388 64.2679C339.186 64.4729 332.214 64.2679 331.804 63.8579C331.394 63.3454 338.058 63.2429 362.255 64.0629L347.388 64.2679Z" fill="#88A7D6" fill-opacity="0.2"/>
<path d="M341.442 87.3304C335.7 87.5354 330.984 87.3304 330.984 86.8179C330.984 86.4079 338.058 86.2029 346.568 86.3054C355.18 86.4079 359.897 86.6129 357.128 86.8179C354.258 86.9204 347.286 87.2279 341.442 87.3304Z" fill="#88A7D6" fill-opacity="0.2"/>
<path d="M361.742 105.268C355.796 105.473 346.363 105.473 340.724 105.268C335.085 105.165 339.904 104.96 351.489 104.96C363.075 104.96 367.689 105.165 361.742 105.268Z" fill="#88A7D6" fill-opacity="0.2"/>
<path d="M340.211 129.15C319.706 129.15 308.428 128.74 308.428 128.125C308.428 127.51 319.706 127.1 340.211 127.1C360.717 127.1 371.995 127.51 371.995 128.125C371.995 128.74 360.717 129.15 340.211 129.15Z" fill="#88A7D6" fill-opacity="0.2"/>
<path d="M289.665 23.0621L253.678 22.5496L217.691 21.9346L290.486 22.0371V45.6121H276.645L289.973 45.0996L289.665 23.0621Z" fill="#7EEC7A" fill-opacity="0.3"/>
<path d="M231.533 45.9196C228.969 46.1246 225.073 46.1246 222.818 45.9196C220.562 45.7146 222.613 45.5096 227.431 45.5096C232.25 45.5096 234.096 45.7146 231.533 45.9196Z" fill="#7EEC7A" fill-opacity="0.3"/>
<path d="M265.161 87.3296C265.059 64.8821 265.367 46.2271 265.879 45.8171C266.289 45.5096 266.699 45.2021 266.802 45.2021C266.802 45.2021 266.699 63.9596 265.879 128.74L254.089 129.047C247.629 129.15 242.503 129.15 242.811 128.842C243.118 128.535 248.245 128.33 265.367 128.227L265.161 87.3296Z" fill="#7EEC7A" fill-opacity="0.3"/>
<path d="M217.999 45.51C217.486 45.305 217.281 39.6675 217.384 33.1075V33.005C217.486 26.445 217.691 22.8575 217.896 25.1125C217.999 27.3675 218.307 33.005 218.409 37.6175C218.614 42.1275 218.409 45.715 217.999 45.51Z" fill="#5DE957" fill-opacity="0.6"/>
<path d="M241.99 88.4575C241.785 50.43 241.683 47.15 240.042 46.2275C239.017 45.715 238.607 45.2025 239.222 45.2025C239.837 45.1 240.863 45.715 241.478 46.4325C242.503 47.4575 242.708 57.5025 242.298 129.765L241.99 88.4575Z" fill="#5DE957" fill-opacity="0.6"/>
<path d="M180.987 195.775C180.884 201.105 180.679 197.005 180.679 186.55C180.679 176.095 180.884 171.79 180.987 176.812C181.192 181.835 181.192 190.445 180.987 195.775Z" fill="black" fill-opacity="0.4"/>
<path d="M277.362 188.6C277.26 192.802 277.055 189.83 277.055 181.937C277.055 174.045 277.157 170.56 277.362 174.25C277.567 177.94 277.567 184.397 277.362 188.6Z" fill="black" fill-opacity="0.4"/>
<path d="M284.539 195.775C284.436 201.105 284.231 197.005 284.231 186.55C284.231 176.095 284.436 171.79 284.539 176.812C284.744 181.835 284.744 190.445 284.539 195.775Z" fill="black" fill-opacity="0.4"/>
<path d="M307.095 201.925C306.89 203.872 306.685 202.027 306.685 197.825C306.685 193.622 306.89 191.982 307.095 194.237C307.3 196.492 307.3 199.977 307.095 201.925Z" fill="black" fill-opacity="0.4"/>
<path d="M188.163 201.412C187.958 203.667 187.753 202.335 187.753 198.337C187.753 194.34 187.958 192.597 188.163 194.237C188.368 195.877 188.368 199.157 188.163 201.412Z" fill="black" fill-opacity="0.4"/>
<path d="M355.078 63.2421C351.079 63.4471 344.415 63.4471 340.211 63.2421C336.008 63.1396 339.186 62.9346 347.388 62.9346C355.59 62.9346 359.076 63.1396 355.078 63.2421Z" fill="#4672BE" fill-opacity="0.6"/>
<path d="M355.078 87.8421C351.079 88.0471 344.415 88.0471 340.211 87.8421C336.008 87.7396 339.186 87.5346 347.388 87.5346C355.59 87.5346 359.076 87.7396 355.078 87.8421Z" fill="#4672BE" fill-opacity="0.6"/>
<path d="M299.918 201.925C299.713 203.873 299.508 202.028 299.508 197.825C299.508 193.623 299.713 191.983 299.918 194.238C300.123 196.493 300.123 199.978 299.918 201.925Z" fill="black" fill-opacity="0.8"/>
<path d="M194.11 167.793C191.342 167.998 186.933 167.998 184.37 167.793C181.807 167.588 184.165 167.485 189.496 167.485C194.828 167.485 196.981 167.588 194.11 167.793Z" fill="black" fill-opacity="0.1"/>
<path d="M438.945 21.7298C429.923 21.9348 422.643 21.7298 422.951 21.2173C423.156 20.8073 430.845 20.6023 439.868 20.7048C453.504 21.0123 456.477 21.3198 456.785 22.5498C457.092 23.6773 456.99 23.7798 456.375 22.7548C455.76 21.8323 451.453 21.5248 438.945 21.7298Z" fill="#F6832C" fill-opacity="0.8"/>
<path d="M427.052 107.625C427.975 105.062 429.205 102.397 429.718 101.782C430.333 100.86 433.614 100.552 450.428 100.86L430.23 101.987L427.872 108.137C426.539 111.52 425.411 113.877 425.411 113.262C425.309 112.75 426.129 110.187 427.052 107.625Z" fill="#F6832C" fill-opacity="0.8"/>
<path d="M457.605 126.587C456.785 124.64 456.067 122.385 456.17 121.77C456.17 121.052 456.887 122.385 459.143 129.15L473.394 128.945C481.289 128.74 487.44 128.945 487.235 129.457C487.03 129.867 480.571 130.175 459.143 130.175L457.605 126.587Z" fill="#F6832C" fill-opacity="0.8"/>
<path d="M420.183 129.15L420.9 126.382C421.208 124.742 421.721 124.127 421.926 124.845C422.131 125.46 421.823 126.997 421.208 128.125C420.285 130.072 419.26 130.175 406.136 129.97C393.628 129.662 391.988 129.457 391.783 127.92C391.578 126.69 391.646 126.587 391.988 127.612C392.398 128.842 394.961 129.15 420.183 129.15Z" fill="#F6832C" fill-opacity="0.8"/>
<path d="M308.12 101.475C308.018 116.44 307.915 104.653 307.915 75.3379C307.915 46.0229 308.018 33.8254 308.12 48.1754C308.325 62.5254 308.325 86.5104 308.12 101.475Z" fill="#5A7FC3" fill-opacity="0.2"/>
<path d="M372.712 39.4629C372.507 42.8454 372.405 40.5904 372.405 34.3379C372.405 28.0854 372.507 25.3179 372.712 28.1879C372.918 30.9554 372.918 36.0804 372.712 39.4629Z" fill="#5A7FC3" fill-opacity="0.2"/>
<path d="M372.712 121.463C372.507 124.845 372.405 122.59 372.405 116.338C372.405 110.085 372.507 107.318 372.712 110.188C372.918 112.955 372.918 118.08 372.712 121.463Z" fill="#5A7FC3" fill-opacity="0.2"/>
<path d="M187.754 181.425C187.548 178.862 187.548 176.197 187.856 175.582V175.48C188.266 174.66 190.317 174.352 199.237 174.66L188.471 175.275L188.164 186.037L187.754 181.425Z" fill="black" fill-opacity="0.4"/>
</svg>
